<?xml version="1.0" encoding="UTF-8" standalone="no"?>
<!-- Created with Inkscape (http://www.inkscape.org/) -->
<svg xmlns:dc="http://purl.org/dc/elements/1.1/" xmlns:cc="http://web.resource.org/cc/" xmlns:rdf="http://www.w3.org/1999/02/22-rdf-syntax-ns#" xmlns:svg="http://www.w3.org/2000/svg" xmlns="http://www.w3.org/2000/svg" xmlns:sodipodi="http://sodipodi.sourceforge.net/DTD/sodipodi-0.dtd" xmlns:inkscape="http://www.inkscape.org/namespaces/inkscape" id="svg1383" sodipodi:version="0.32" inkscape:version="0.44.1" width="800" height="740" sodipodi:docbase="C:\Documents and Settings\Nicholas\Desktop" sodipodi:docname="Location_of_Nathula.svg" version="1.0">
  <metadata id="metadata1388">
    <rdf:RDF>
      <cc:Work rdf:about="">
        <dc:format>image/svg+xml</dc:format>
        <dc:type rdf:resource="http://purl.org/dc/dcmitype/StillImage"/>
        <dc:title>Location of Nathula</dc:title>
        <dc:date>2006-07-06</dc:date>
        <dc:creator>
          <cc:Agent>
            <dc:title>Nicholas</dc:title>
          </cc:Agent>
        </dc:creator>
        <dc:language>en</dc:language>
        <dc:subject>
          <rdf:Bag>
            <rdf:li>Nathula</rdf:li>
            <rdf:li>Nathula Pass</rdf:li>
            <rdf:li>location</rdf:li>
          </rdf:Bag>
        </dc:subject>
        <cc:license rdf:resource="http://creativecommons.org/licenses/by-sa/2.0/"/>
        <dc:description>Location of Nathula</dc:description>
      </cc:Work>
      <cc:License rdf:about="http://creativecommons.org/licenses/by-sa/2.0/">
        <cc:permits rdf:resource="http://web.resource.org/cc/Reproduction"/>
        <cc:permits rdf:resource="http://web.resource.org/cc/Distribution"/>
        <cc:requires rdf:resource="http://web.resource.org/cc/Notice"/>
        <cc:requires rdf:resource="http://web.resource.org/cc/Attribution"/>
        <cc:permits rdf:resource="http://web.resource.org/cc/DerivativeWorks"/>
        <cc:requires rdf:resource="http://web.resource.org/cc/ShareAlike"/>
      </cc:License>
    </rdf:RDF>
  </metadata>
  <defs id="defs1386"/>
  <sodipodi:namedview inkscape:window-height="708" inkscape:window-width="1024" inkscape:pageshadow="2" inkscape:pageopacity="0.0" borderopacity="1.0" bordercolor="#666666" pagecolor="#ffffff" id="base" inkscape:zoom="0.4" inkscape:cx="391.70689" inkscape:cy="289.16136" inkscape:window-x="-4" inkscape:window-y="-4" inkscape:current-layer="layer3"/>
  <g inkscape:groupmode="layer" id="layer2" inkscape:label="draw" style="display:inline">
    <rect style="opacity:1;fill:#f7d3aa;fill-opacity:1;stroke:none;stroke-width:3.31599998;stroke-linecap:round;stroke-miterlimit:4;stroke-dasharray:none;stroke-dashoffset:0;stroke-opacity:1" id="rect2285" width="800" height="740" x="0" y="1.070255e-013"/>
    <path style="fill:none;fill-opacity:0.75;fill-rule:evenodd;stroke:#000000;stroke-width:1px;stroke-linecap:butt;stroke-linejoin:miter;stroke-opacity:1" d="M 150.62198,168.43447 C 150.70219,164.01653 144.637,160.01717 144.637,153.47202 C 144.637,152.89785 148.62699,146.36922 148.62699,141.50206 C 148.62699,136.26347 147.55869,134.51959 154.61197,134.51959 C 158.077,134.51959 161.6299,140.28178 164.58693,142.49956 C 170.9354,147.26091 172.28079,144.78067 174.5619,142.49956 C 176.94478,140.11668 169.3272,135.51708 179.54938,135.51708 C 186.31051,135.51708 187.58781,140.02043 193.51433,141.50206 C 200.09303,143.14674 199.54493,137.46646 202.4918,134.51959 C 203.80524,133.20615 213.93306,132.90614 215.45926,132.52459 C 215.53333,132.50607 224.36888,126.60746 225.43422,125.54212 C 229.4014,121.57494 228.83001,121.55213 236.40669,121.55213 C 242.50747,121.55213 245.24606,124.40653 248.37664,127.53711 C 252.82648,131.98694 254.86843,119.52492 255.35912,117.56214 C 255.41246,117.34877 266.54507,110.36618 267.32908,109.58217 C 270.88385,106.0274 273.16577,105.13051 279.29904,103.59719 C 283.31128,102.59413 285.29685,100.6047 291.269,100.6047 C 291.57062,100.6047 297.16083,105.59219 302.24146,105.59219 C 304.9971,105.59219 302.31992,92.93858 302.24146,92.62473 C 300.95553,87.481004 306.77912,85.754711 311.21893,84.644758 C 316.5861,83.302965 319.51657,83.409012 323.18889,80.654772 C 327.2507,77.608414 330.85547,78.40373 329.17387,71.677303 C 328.33969,68.340606 324.66003,62.175979 332.16636,69.682309 C 335.11115,72.627108 340.28528,80.213087 341.14382,83.647261 C 342.85053,90.474066 347.5223,90.629737 354.11128,90.629737 C 359.09876,90.629737 364.08625,90.629737 369.07373,90.629737 C 376.13503,90.629737 377.17009,94.091062 383.03868,97.612213 C 387.47826,100.27596 391.30915,104.24119 396.00614,106.58968 C 398.86716,108.02019 402.01122,112.65506 402.98861,116.56465 C 404.46894,122.48596 400.19065,126.83762 406.9786,128.53461 C 411.82655,129.74659 409.97109,138.53758 409.97109,142.49956 C 409.97109,143.63404 405.9811,148.3906 405.9811,153.47202 C 405.9811,159.74787 405.20133,161.4098 408.97359,166.43948 C 412.71789,171.43188 413.55458,173.2187 419.94605,176.41444 C 426.80358,179.84321 418.84048,186.49748 417.95106,187.3869 C 415.81681,189.52116 416.95356,198.46879 416.95356,202.34935 C 416.95356,206.54419 411.4558,206.38548 409.97109,212.32432 C 409.00392,216.193 407.7715,223.11767 406.9786,226.28927 C 405.49661,232.21723 403.78778,234.61924 409.97109,239.25673 C 414.99874,243.02746 407.80805,249.39973 406.9786,250.22919 C 402.42168,254.78611 403.98611,254.73268 403.98611,262.19915 C 403.98611,268.47464 408.18471,268.34717 406.9786,273.17161 C 406.34607,275.70171 399.33021,274.83777 398.00113,280.15408 C 397.51169,282.11183 393.12667,284.68949 392.01615,289.13155 C 390.16492,296.53648 390.83288,297.48307 388.02616,303.09651 C 386.27289,306.60306 382.80298,310.55038 381.04369,314.06897 C 380.88997,314.37641 378.3009,317.06014 378.0512,318.05895 C 375.80285,322.55565 386.03117,325.7544 386.03117,331.02641 C 386.03117,337.05984 384.03618,339.5182 384.03618,344.99136 C 384.03618,348.48894 388.02616,352.3787 388.02616,357.95882 C 388.02616,365.11952 385.39015,364.30027 392.01615,370.92627 C 395.36591,374.27603 395.37418,379.42978 399.99612,382.89623 C 404.13928,386.0036 408.24206,389.9452 411.96608,390.8762 C 418.70247,392.5603 415.15351,398.15679 421.94105,399.85367 C 425.9711,400.86118 429.31461,406.22973 431.91601,408.83114 C 432.91351,409.82864 433.91101,410.82613 434.9085,411.82363" id="path1395"/>
    <path id="path1397" d="M 434.9085,411.82363 C 433.91101,410.82613 432.91351,409.82864 431.91601,408.83114 C 429.31461,406.22973 425.9711,400.86118 421.94105,399.85367 C 415.15351,398.15679 418.70247,392.5603 411.96608,390.8762 C 408.24206,389.9452 404.13928,386.0036 399.99612,382.89623 C 395.37418,379.42978 395.36591,374.27603 392.01615,370.92627 C 385.39015,364.30027 388.02616,365.11952 388.02616,357.95882 C 388.02616,352.3787 384.03618,348.48894 384.03618,344.99136 C 384.03618,339.5182 386.03117,337.05984 386.03117,331.02641 C 386.03117,325.7544 375.80285,322.55565 378.0512,318.05895 C 378.3009,317.06014 380.88997,314.37641 381.04369,314.06897 C 382.80298,310.55038 386.27289,306.60306 388.02616,303.09651 C 390.83288,297.48307 390.16492,296.53648 392.01615,289.13155 C 393.12667,284.68949 397.51169,282.11183 398.00113,280.15408 C 399.33021,274.83777 406.34607,275.70171 406.9786,273.17161 C 408.18471,268.34717 403.98611,268.47464 403.98611,262.19915 C 403.98611,254.73268 402.42168,254.78611 406.9786,250.22919 C 407.80805,249.39973 414.99874,243.02746 409.97109,239.25673 C 403.78778,234.61924 405.49661,232.21723 406.9786,226.28927 C 407.7715,223.11767 409.00392,216.193 409.97109,212.32432 C 411.4558,206.38548 416.95356,206.54419 416.95356,202.34935 C 416.95356,198.46879 415.81681,189.52116 417.95106,187.3869 C 418.84048,186.49748 426.80358,179.84321 419.94605,176.41444 C 413.55458,173.2187 412.71789,171.43188 408.97359,166.43948 C 405.20133,161.4098 405.9811,159.74787 405.9811,153.47202 C 405.9811,148.3906 409.97109,143.63404 409.97109,142.49956 C 409.97109,138.53758 411.82655,129.74659 406.9786,128.53461 C 400.19065,126.83762 404.46894,122.48596 402.98861,116.56465 C 402.01122,112.65506 398.86716,108.02019 396.00614,106.58968 C 391.30915,104.24119 387.47826,100.27596 383.03868,97.612213 C 377.17009,94.091062 376.13503,90.629737 369.07373,90.629737 C 364.08625,90.629737 359.09876,90.629737 354.11128,90.629737 C 347.5223,90.629737 342.85053,90.474066 341.14382,83.647261 C 340.28528,80.213087 335.11115,72.627108 332.16636,69.682309 C 324.66003,62.175979 328.33969,68.340606 329.17387,71.677303 C 330.85547,78.40373 327.2507,77.608414 323.18889,80.654772 C 319.51657,83.409012 316.5861,83.302965 311.21893,84.644758 C 306.77912,85.754711 300.95553,87.481004 302.24146,92.62473 C 302.31992,92.93858 304.9971,105.59219 302.24146,105.59219 C 297.16083,105.59219 291.57062,100.6047 291.269,100.6047 C 285.29685,100.6047 283.31128,102.59413 279.29904,103.59719 C 273.16577,105.13051 270.88385,106.0274 267.32908,109.58217 C 266.54507,110.36618 255.41246,117.34877 255.35912,117.56214 C 254.86843,119.52492 252.82648,131.98694 248.37664,127.53711 C 245.24606,124.40653 242.50747,121.55213 236.40669,121.55213 C 228.83001,121.55213 229.4014,121.57494 225.43422,125.54212 C 224.36888,126.60746 215.53333,132.50607 215.45926,132.52459 C 213.93306,132.90614 203.80524,133.20615 202.4918,134.51959 C 199.54493,137.46646 200.09303,143.14674 193.51433,141.50206 C 187.58781,140.02043 186.31051,135.51708 179.54938,135.51708 C 169.3272,135.51708 176.94478,140.11668 174.5619,142.49956 C 172.28079,144.78067 170.9354,147.26091 164.58693,142.49956 C 161.6299,140.28178 158.077,134.51959 154.61197,134.51959 C 147.55869,134.51959 148.62699,136.26347 148.62699,141.50206 C 148.62699,146.36922 144.637,152.89785 144.637,153.47202 C 144.637,160.01717 150.70219,164.01653 150.62198,168.43447 C 151.28698,168.76697 151.95198,169.09947 152.61697,169.43197 C 155.19425,170.7206 155.3646,172.61261 158.60195,173.42195 C 161.75324,174.20977 162.47582,175.60826 165.08568,176.91319 C 167.61408,178.17739 168.86265,178.30293 171.07066,179.40693 C 173.5745,180.65885 172.69504,182.77004 171.07066,184.39441 C 168.76178,186.70329 167.57942,183.11959 167.57942,188.3844 C 167.57942,191.98221 164.59677,189.91998 165.58443,193.87063 C 166.65974,198.17187 165.16046,198.14738 169.57442,200.35436 C 172.35093,201.74261 172.33949,205.64807 169.57442,206.33934 C 166.18501,207.18669 164.58693,206.67043 164.58693,210.82807 C 164.58693,214.10018 162.59194,213.08181 162.59194,216.81305 C 162.59194,220.12978 163.54005,222.06225 160.59695,222.79803 C 157.0038,223.69632 157.10571,222.44383 157.10571,226.78802 C 157.10571,229.54591 155.60946,230.82909 155.60946,233.77049 C 155.60946,237.02387 154.80714,238.47602 154.11322,241.25172 C 153.57438,243.40706 153.50697,246.66921 153.11572,248.23419 C 152.84251,249.32706 149.98706,252.8591 149.12574,253.72043 C 147.90097,254.94519 147.62746,257.71852 147.13074,259.7054 C 146.75642,261.2027 143.47822,262.52916 142.14326,263.19664 C 138.93336,264.80159 140.27423,267.31259 141.64451,268.68287 C 142.97217,270.01053 140.94545,275.06848 140.64702,275.66535 C 140.35638,276.24662 136.44937,279.10096 135.65953,280.15408 C 134.81417,281.28124 130.65679,281.65796 129.67455,282.14908 C 126.77871,283.597 127.05503,283.64971 126.18332,287.13656 C 125.47541,289.9682 126.93684,290.63861 128.17831,293.12154 C 128.69158,294.14808 127.72601,295.38303 127.67956,295.61528 C 129.21786,298.69187 124.88096,300.40888 123.68957,301.60026 C 122.51327,302.77657 121.87463,305.4102 120.69708,306.58774 C 118.88275,308.40208 119.09447,309.3675 120.19834,311.57523 C 121.6042,314.38695 120.48894,313.40529 119.69959,316.56271 C 119.2771,318.25266 118.23742,320.98329 117.70459,322.04894 C 116.61788,324.22236 115.21085,324.75061 115.21085,328.53267 C 115.21085,331.63735 115.14945,333.43828 116.7071,335.51514 C 118.71647,338.1943 120.38492,338.25649 121.19583,341.50012 C 121.94649,344.50277 122.8984,345.31789 123.68957,348.4826 C 124.30187,350.93176 124.7765,352.6136 124.18832,354.96633 C 123.8392,356.36282 120.37129,357.16746 119.20084,357.46007 C 116.85846,358.04566 115.80975,359.5532 115.21085,361.9488 C 114.72715,363.8836 114.59065,366.92338 114.21336,368.43253 C 113.64146,370.7201 112.21836,370.79072 112.21836,373.91876 C 112.21836,376.4125 112.21836,378.90624 112.21836,381.39999 C 112.21836,383.68777 116.78716,382.89623 118.70209,382.89623 C 121.36589,382.89623 121.02592,389.0621 120.69708,390.37745 C 120.04856,392.97155 118.11124,393.46205 116.7071,394.86619 C 114.56227,397.01102 113.98822,396.49064 113.21586,400.35242 C 113.06,401.13173 110.12307,404.543 109.72462,405.3399 C 108.85511,407.07893 108.72713,410.199 108.72713,412.32238 C 108.72713,415.11146 107.72963,417.01613 107.72963,419.8036 C 107.72963,421.76186 106.33911,424.08089 105.73464,425.28983 C 104.61371,427.53169 104.23549,429.78436 103.24089,431.77356 C 102.67467,432.90601 102.31087,434.13235 101.74465,435.2648 C 101.74465,438.17298 107.9253,437.15238 109.22587,439.75353 C 109.95091,441.2036 114.83387,441.03085 115.7096,441.24978 C 118.39896,441.92212 119.48357,445.55982 122.19333,446.23726 C 125.2175,446.9933 126.19408,447.74158 128.17831,449.22975 C 129.54762,450.25674 125.26943,452.05795 125.68457,453.71849 C 126.50444,456.99799 126.3158,458.21762 128.17831,460.70096 C 129.9398,463.04961 131.07106,464.99022 132.16829,467.18469 C 132.95424,468.75658 132.16829,472.86217 132.16829,474.66591 C 132.16829,475.44345 138.45294,477.30949 139.15077,477.6584 C 141.58686,478.87645 143.45199,479.07684 145.13575,478.6559 C 145.56964,478.54743 148.45279,483.14463 151.12073,483.14463 C 154.82996,483.14463 154.68627,483.87682 157.10571,480.65089 C 158.45179,478.85612 160.80327,478.94833 162.09319,477.6584 C 163.42319,476.32841 167.24692,477.49215 168.57692,476.16216 C 169.57824,475.16084 175.47561,476.88934 176.55689,477.15966 C 180.13608,478.05445 181.12172,476.46655 182.04312,480.15215 C 182.08756,480.32989 188.31847,481.5442 188.52685,481.64839 C 191.10768,482.9388 194.01308,482.68759 194.01308,479.6534 C 194.01308,476.56722 197.98172,477.15966 200.49681,477.15966 C 203.1568,477.15966 205.81679,477.15966 208.47678,477.15966 C 211.77656,477.15966 212.58207,480.65089 216.45675,480.65089 C 220.51012,480.65089 220.94549,483.49121 220.94549,487.13462 C 220.94549,489.47541 226.93271,489.62836 228.92546,489.62836 C 232.64009,489.62836 233.24954,492.62085 236.90543,492.62085 C 240.83083,492.62085 243.14092,492.97065 245.8829,494.61585 C 248.45406,496.15854 251.5143,496.34565 253.86288,498.10708 C 255.97646,499.69227 259.11714,499.10458 261.84285,499.10458 C 266.50982,499.10458 265.52283,498.22834 267.32908,494.61585 C 268.48899,492.29603 269.32407,491.84139 269.32407,488.63087 C 269.32407,485.28935 269.37665,484.1027 271.31907,482.64589 C 272.56568,481.71092 276.76687,482.03206 278.30154,481.64839 C 281.65534,480.80994 281.29403,480.18346 281.29403,476.66091 C 281.29403,474.74083 285.13667,473.19989 286.28151,471.67342 C 286.91995,470.82218 291.48505,469.96112 292.26649,469.17968 C 293.08876,468.35741 292.26649,462.43877 292.26649,461.19971 C 292.26649,457.61857 295.49626,458.39727 298.25147,457.70847 C 301.78668,456.82467 303.36887,456.9876 305.7327,455.21473 C 308.11658,453.42682 314.15311,456.71098 316.70516,456.71098 C 318.35094,456.71098 319.03265,454.38348 320.1964,453.21974 C 321.0873,452.32884 325.19612,453.21974 327.17887,453.21974 C 330.00511,453.21974 332.83135,453.21974 335.65759,453.21974 C 338.206,453.21974 340.76546,453.18964 342.64007,452.72099 C 345.64198,451.97051 346.74884,450.22725 351.61754,450.22725 C 355.41479,450.22725 357.26501,453.21974 361.09376,453.21974 C 364.16658,453.21974 367.51541,455.21473 371.06872,455.21473 C 373.77857,455.21473 376.69439,459.20472 380.54494,459.20472 C 383.52981,459.20472 384.03917,462.09806 387.02867,462.69596 C 389.63545,463.21731 392.24696,468.25643 393.51239,463.1947 C 394.06072,461.00139 394.01114,458.07316 394.01114,456.21223 C 394.01114,453.71849 394.01114,451.22474 394.01114,448.731 C 394.01114,447.5534 399.05394,444.18695 399.49737,443.74352 C 401.63531,441.60558 404.59666,441.74853 407.97609,441.74853 C 411.6131,441.74853 413.10698,439.75353 417.45231,439.75353 C 420.28541,439.75353 422.81064,439.25479 425.43228,439.25479 C 426.66576,439.25479 429.27781,435.90801 429.92102,435.2648 C 431.43582,433.75 432.39639,429.85206 432.91351,427.78358 C 433.57494,425.13785 433.39937,422.82187 434.40975,420.8011 C 435.42961,418.76139 435.40825,415.80961 435.906,413.81862 C 436.08632,413.09733 435.241,412.48863 434.9085,411.82363 z " style="fill:#ffffd0;fill-opacity:1;fill-rule:evenodd;stroke:none;stroke-width:1px;stroke-linecap:butt;stroke-linejoin:miter;stroke-opacity:1"/>
    <path style="fill:#ffffd0;fill-opacity:1;fill-rule:evenodd;stroke:none;stroke-width:1px;stroke-linecap:butt;stroke-linejoin:miter;stroke-opacity:1" d="M 133.16579,738.50376 C 135.17803,736.49152 130.15606,732.03727 132.16829,730.02503 C 134.42082,727.77251 134.42971,726.10323 133.66454,723.04256 C 132.86214,719.83294 133.66644,719.04876 134.66204,717.05758 C 135.88473,714.61218 133.66454,712.00358 133.66454,709.57635 C 133.66454,707.81546 136.3274,705.91815 137.65453,705.58637 C 140.72461,704.81885 142.37211,706.66597 143.14076,703.59138 C 143.72405,701.25819 143.14076,698.0427 143.14076,695.6114 C 143.14076,692.49978 143.59211,691.75795 146.13325,691.12267 C 147.72281,690.72528 149.5129,686.74552 150.62198,685.63644 C 152.42559,683.83283 152.18698,682.07645 154.11322,680.15021 C 155.77867,678.48475 155.60946,676.34977 155.60946,673.66648 C 155.60946,670.94753 155.11072,668.77246 155.11072,666.18525 C 155.11072,663.02478 155.52325,661.54262 156.10821,659.20278 C 156.94833,655.84232 156.48063,654.84037 158.60195,652.71905 C 159.74422,651.57679 161.33759,648.74402 162.09319,647.23282 C 162.68097,646.64504 163.09069,645.90282 163.58944,645.23783 C 164.73905,643.705 163.57571,638.78155 164.58693,636.75911 C 166.07508,633.7828 165.63463,630.57659 165.08568,627.28289 C 164.53315,623.96768 164.08818,621.30182 164.08818,617.80667 C 164.08818,615.31293 164.08818,612.81919 164.08818,610.32545 C 164.08818,606.90531 164.06957,605.4794 162.09319,602.84422 C 160.34954,600.51936 160.0982,598.34711 160.0982,595.363 C 160.0982,592.86926 160.0982,590.37552 160.0982,587.88177 C 160.0982,584.72472 159.05047,583.34281 157.10571,581.39805 C 154.63205,578.92439 153.81126,577.1061 151.61948,574.91432 C 150.16742,573.46226 149.62448,570.9331 149.62448,568.92934 C 149.62448,566.96553 148.96086,563.28237 148.62699,561.94686 C 148.08672,559.78578 145.54559,556.97745 144.637,555.46314 C 143.42784,553.44786 142.14819,551.47972 140.64702,549.47816 C 138.93007,547.18889 140.14827,545.33058 140.14827,542.99443 C 140.14827,540.94845 141.64451,538.17968 141.64451,535.5132 C 141.64451,535.44377 136.55394,531.69527 135.65953,531.02447 C 134.18008,529.91488 133.01113,526.41582 132.66704,525.03949 C 132.09863,522.76582 128.47164,521.84159 127.18081,520.55076 C 125.69616,519.06611 123.162,519.55326 120.69708,519.55326 C 117.27612,519.55326 115.33375,519.67616 113.21586,517.55827 C 111.02434,515.36675 111.14762,513.92054 109.72462,511.07454 C 108.48001,508.58532 107.77763,506.64981 106.23338,504.59081 C 104.5528,502.35003 104.11474,500.85228 102.74215,498.10708 C 101.64981,495.92241 100.3539,494.04035 99.749656,491.62336 C 99.191237,489.38968 97.584303,488.00435 95.75967,486.63587 C 93.165817,484.69048 93.285806,482.03736 90.772187,480.15215 C 88.802159,478.67462 93.216137,477.82043 94.762174,476.66091 C 96.060501,475.68716 96.382787,471.6747 96.757167,470.17718 C 97.69802,466.41377 100.2484,466.4292 100.2484,461.69846 C 100.2484,459.1864 100.74715,456.47986 100.74715,453.71849 C 100.74715,449.45875 100.53026,446.64903 99.749656,442.74602 C 99.446915,441.23232 99.749656,439.31043 99.749656,437.75854 C 99.749003,437.75527 107.42897,439.10446 107.72963,439.25479 C 111.07544,440.92769 111.57944,439.47318 113.21586,442.74602 C 114.38862,445.09155 117.06728,441.97014 118.70209,445.23977 C 119.0343,445.90419 124.36773,446.41667 125.18582,447.23476 C 126.07324,448.12218 130.65903,449.22975 126.68206,449.22975 C 123.33404,449.22975 126.37973,453.00788 126.68206,454.21723 C 127.55418,457.70571 126.16404,458.18795 129.17581,461.19971 C 130.9906,463.01451 128.24259,465.98603 131.1708,468.18219 C 133.02809,469.57515 131.53478,473.19328 134.16329,475.16466 C 136.14264,476.64917 136.30352,477.15966 140.14827,477.15966 C 142.09863,477.15966 144.46423,481.30285 145.13575,482.64589 C 146.17929,484.73296 149.85447,482.5787 152.11823,483.14463 C 155.58463,484.01124 154.11484,482.64508 157.10571,481.14964 C 159.4106,479.9972 159.38594,479.15465 163.09069,479.15465 C 165.03958,479.15465 165.91666,477.6584 169.07567,477.6584 C 172.42322,477.6584 173.11711,476.8707 177.05564,477.6584 C 179.73567,478.19441 181.48462,479.51377 184.03812,480.15215 C 186.32703,480.72437 188.93318,480.65089 191.51934,480.65089 C 195.53631,480.65089 195.50933,480.59846 195.50933,476.66091 C 195.50933,476.0967 203.9469,477.55042 204.4868,477.6584 C 207.5254,478.26613 210.18681,477.51592 212.46677,478.6559 C 215.24554,480.04528 214.14133,482.64589 218.45175,482.64589 C 220.56776,482.64589 220.88765,486.62141 222.94048,487.13462 C 225.09909,487.67427 227.28,488.10228 229.92296,488.63087 C 233.09819,489.26591 233.01195,490.72237 234.91044,492.62085 C 235.65577,493.36618 241.2066,492.62085 242.39166,492.62085 C 246.02831,492.62085 247.11842,494.2682 248.87539,496.61084 C 249.27132,497.13875 256.72943,497.60834 257.35411,497.60834 C 259.63462,497.60834 261.79053,498.59275 263.83784,499.10458 C 266.38874,499.7423 268.32658,497.55069 268.32658,495.11459 C 268.32658,491.65927 268.50726,490.53552 271.31907,489.12961 C 274.10237,487.73796 270.8247,483.90371 270.32157,482.64589 C 269.71944,481.14056 277.19424,481.64839 278.80029,481.64839 C 282.29397,481.64839 280.79528,479.52815 280.79528,476.16216 C 280.79528,475.73722 285.83213,473.64373 286.78026,473.16967 C 289.27607,471.92177 289.60655,470.84216 292.26649,470.17718 C 294.64385,469.58284 293.76274,465.24477 293.76274,463.1947 C 293.76274,460.33286 293.9789,458.27364 294.76023,456.71098 C 295.94999,454.33146 301.04677,454.71598 303.7377,454.71598 C 306.39769,454.71598 309.05769,454.71598 311.71768,454.71598 C 315.33568,454.71598 316.33965,456.92704 319.1989,456.21223 C 323.36338,455.17111 319.866,453.05296 323.18889,452.22224 C 326.9849,451.27324 328.56785,454.21723 332.16636,454.21723 C 335.91084,454.21723 338.07934,453.98586 341.14382,453.21974 C 343.41179,452.65275 346.34825,452.79144 348.62505,452.22224 C 350.98228,451.63293 350.60126,448.71222 353.61253,451.72349 C 354.83024,452.9412 359.34094,452.40747 360.59501,452.72099 C 362.5945,453.22086 365.59157,454.7178 368.07623,455.21473 C 371.35819,455.87112 372.47161,458.20722 375.55746,458.20722 C 379.99125,458.20722 382.02055,460.81018 384.53493,462.69596 C 387.24881,464.73137 391.01865,461.35075 391.01865,466.18719 C 391.01865,469.49733 393.86415,468.47617 392.01615,472.17217 C 391.39873,473.40701 387.74433,473.23459 386.52992,475.66341 C 385.13457,478.45411 383.38946,477.6584 380.04619,477.6584 C 376.58341,477.6584 377.55245,480.27864 377.55245,483.14463 C 377.55245,486.15447 376.86105,488.63087 380.54494,488.63087 C 383.53625,488.63087 385.80341,488.51699 388.02616,489.62836 C 390.61116,490.92086 391.15345,491.62336 394.50989,491.62336 C 397.86974,491.62336 398.74505,493.1196 401.99112,493.1196 C 404.02244,493.1196 405.69594,497.21638 407.47735,498.10708 C 409.95945,499.34813 410.05551,500.60082 413.96107,500.60082 C 416.80417,500.60082 418.92372,504.49144 419.44731,506.5858 C 420.19176,509.56363 421.71948,511.40711 423.93604,513.06953 C 424.73126,513.66595 423.43958,517.05037 423.43729,517.05952 C 425.95579,518.94839 419.72743,522.48425 419.44731,523.0445 C 418.64387,524.65136 418.87192,528.8373 418.44981,530.52572 C 417.90609,532.70059 418.44981,535.75188 418.44981,538.00695 C 418.44981,539.74871 420.4448,542.23547 420.4448,544.98942 C 420.4448,547.56785 420.37227,550.18554 420.94355,552.47065 C 421.61452,555.15453 424.93354,552.08149 424.93354,549.9769 C 424.93354,546.99508 425.92751,545.0035 426.42978,542.99443 C 426.95036,540.91213 429.15002,540.27419 430.41977,539.00444 C 431.63129,537.79292 434.24136,537.17784 435.40725,536.01195 C 437.28733,534.13187 439.33467,537.94438 440.39473,539.00444 C 442.59445,541.20416 443.7026,542.62769 444.88347,544.98942 C 446.08907,547.40062 445.97154,549.65931 446.87846,551.47315 C 447.50674,552.72971 446.37971,557.17588 446.37971,558.95437 C 446.37971,562.91447 448.80401,561.68013 451.86594,562.44561 C 454.97761,563.22353 455.93507,564.93935 459.84592,564.93935 C 462.23555,564.93935 462.12924,562.15728 463.33715,560.94937 C 464.05937,560.22715 468.31322,559.45883 469.32213,558.95437 C 472.48768,557.3716 473.81087,559.44099 473.81087,561.94686 C 473.81087,562.54067 480.84802,564.82834 481.29209,564.93935 C 483.21158,565.41923 485.01606,569.16207 485.78083,569.92684 C 486.13349,570.2795 484.78333,569.92684 484.28458,569.92684 C 484.87236,570.51462 485.61458,570.92433 486.27957,571.42308 C 488.81719,573.32629 491.43339,572.25449 492.7633,574.91432 C 493.75524,576.8982 497.67864,574.84217 499.24703,576.41056 C 500.21636,577.3799 500.24453,583.16998 500.24453,584.88928 C 500.24453,587.54928 500.24453,590.20927 500.24453,592.86926 C 500.24453,593.78987 502.58892,598.55554 503.23702,599.85173 C 504.57705,602.5318 507.07609,605.83671 510.71824,605.83671 C 514.77732,605.83671 513.86894,607.64938 515.20698,610.32545 C 515.9003,611.7121 522.90591,610.82419 524.18444,610.82419 C 527.67581,610.82419 527.85634,607.83171 531.66567,607.83171 C 534.53496,607.83171 537.4945,606.83421 540.64314,606.83421 C 543.13688,606.83421 545.63062,606.83421 548.12436,606.83421 C 551.42971,606.83421 554.23849,606.76963 556.10433,605.83671 C 558.32931,604.72422 561.55736,605.85332 563.58556,604.83922 C 566.72162,603.27118 567.1726,603.24716 569.57054,600.84923 C 571.40622,599.01355 573.08542,598.35549 576.05427,598.35549 C 579.83241,598.35549 580.38084,598.0189 582.53799,595.86175 C 583.63858,594.76116 588.43647,595.363 590.51797,595.363 C 594.04173,595.363 594.41106,594.01566 597.00169,593.36801 C 599.18714,592.82164 601.78475,590.08119 602.98667,588.87927 C 604.78996,587.07598 609.73541,591.44708 610.96665,592.37051 C 613.78314,594.48288 611.71591,596.54781 614.95663,597.35799 C 617.29061,597.94148 620.52869,597.35799 622.9366,597.35799 C 626.60105,597.35799 627.21133,599.35298 630.41783,599.35298 C 633.54968,599.35298 634.43215,603.93905 634.90656,605.83671 C 635.88089,609.73404 634.86182,609.32795 639.3953,609.32795 C 641.88904,609.32795 644.38278,609.32795 646.87652,609.32795 C 649.37026,609.32795 651.864,609.32795 654.35775,609.32795 C 656.77287,609.32795 658.90775,607.83171 661.83897,607.83171 C 664.2306,607.83171 666.84979,609.32795 669.81894,609.32795 C 672.80317,609.32795 673.93854,612.38525 675.80392,613.31794 C 678.98395,614.90795 680.75218,613.77746 683.28515,616.31043 C 684.925,617.95028 690.10626,619.30292 692.76136,619.30292 C 695.35206,619.30292 697.93759,619.22541 700.24259,619.80166 C 703.16178,620.53146 702.23758,624.50465 702.23758,626.78414 C 702.23758,630.6355 701.12173,631.77162 697.74885,631.77162 C 697.45425,631.77162 696.39999,638.16456 696.2526,638.7541 C 696.00376,639.74946 693.25772,641.75614 692.76136,643.74158 C 692.01096,646.7432 696.87879,645.73657 698.74634,645.73657 C 702.18469,645.73657 703.13094,645.84071 704.73132,644.24033 C 706.53169,642.43997 705.91746,641.57474 709.22006,640.74909 C 712.15124,640.0163 708.84428,638.35897 717.20003,639.7516 C 719.9701,640.21327 722.75442,640.25034 725.67875,640.25034 C 729.11734,640.25034 731.93245,641.74659 735.65372,641.74659 C 741.53245,641.74659 741.70054,644.30217 745.62868,648.23032 C 747.3767,649.97833 751.17642,649.22781 753.60865,649.22781 C 756.52552,649.22781 759.28993,649.26032 762.08737,649.72656 C 765.55999,650.30533 768.87403,650.0864 772.06234,650.72406 C 775.25708,651.363 776.98904,651.95573 780.04231,652.71905 C 781.1882,653.00552 781.53856,647.07026 781.53856,646.23532 C 781.53856,643.64998 779.71771,641.59613 778.54607,639.25285 C 776.74624,635.65319 779.93371,634.76411 782.53605,634.76411 C 784.1295,634.76411 787.52354,639.17655 787.52354,640.25034 C 787.52354,640.91877 793.7484,642.24534 795.00476,642.24534 C 797.4985,642.24534 799.99224,642.24534 802.48599,642.24534 L 800.49099,740.49875 L 290.2715,740.49875 C 289.44025,739.83375 288.60901,739.16875 287.77776,738.50376 C 286.57029,737.53778 284.7856,734.51444 284.28652,733.51627 C 283.31876,731.58075 280.6354,731.86014 278.30154,729.52629 C 276.52926,727.754 276.30643,725.03695 275.8078,722.54381 C 275.2383,719.69632 272.68839,720.05007 269.82282,720.05007 C 266.6568,720.05007 263.94848,720.35476 261.3441,719.05257 C 258.9731,717.86707 256.60639,715.56292 255.85787,712.56884 C 255.08432,709.47466 253.36413,708.86038 253.36413,705.08762 C 253.36413,702.12528 251.62305,700.60797 250.37164,698.10514 C 249.17803,695.71793 250.06167,692.99647 248.87539,690.62392 C 248.08945,689.05203 248.87539,684.94644 248.87539,683.1427 C 248.87539,681.02743 243.7276,682.43465 242.89041,682.64395 C 239.66347,683.45068 238.01264,682.58403 238.90043,686.13519 C 239.29889,687.72902 241.16564,691.6631 241.89292,693.11766 C 243.3586,696.04903 244.57756,695.21885 241.39417,697.6064 C 238.57997,699.71704 237.36974,696.74669 236.40669,700.59889 C 235.70085,703.42224 235.5752,704.92232 234.91044,707.58136 C 234.46409,709.36677 233.0975,710.84313 232.4167,713.56634 C 231.53057,717.11084 232.45135,718.51917 229.92296,721.04757 C 228.45318,722.51735 228.92546,725.10581 228.92546,727.53129 C 228.92546,730.76527 226.53635,730.88303 224.93548,733.01752 C 222.83242,735.8216 225.51194,737.00751 220.94549,737.00751 C 217.28514,737.00751 216.9555,738.64037 216.9555,741.99499 L 133.16579,738.50376 z M 133.16579,738.50376 L 134.16329,739.0025" id="path2275"/>
    <path style="fill:none;fill-opacity:0.75;fill-rule:evenodd;stroke:#000000;stroke-width:1px;stroke-linecap:butt;stroke-linejoin:miter;stroke-opacity:1" d="M 289.274,739.0025 L 291.76774,741.49624" id="path2277"/>
  </g>
  <g inkscape:groupmode="layer" id="layer3" inkscape:label="Borders" style="display:inline">
    <path style="fill:#ffd0d0;fill-opacity:1;fill-rule:evenodd;stroke:#a08070;stroke-width:4;stroke-linecap:butt;stroke-linejoin:miter;stroke-miterlimit:4;stroke-dasharray:none;stroke-opacity:1" d="M 782,-15.313709 C 782,-12.905305 782.00069,-0.0027684246 781.5,1.9999992 C 780.67869,5.2852519 780.36628,5.6337234 777.5,8.4999992 C 775.96618,10.033819 773.90878,13.795609 772.5,14.499999 C 771.1894,15.155301 768.69475,18.076313 767,18.499999 C 763.60482,19.348793 764.29015,21.604927 761.5,22.999999 C 760.64759,23.426207 755,27.228857 755,28.499999 C 755,29.454877 758.40844,35.897891 758,35.999999 C 754.74521,36.813696 753.5008,36.499198 751,38.999999 C 750.01644,39.983558 748.4487,44.275649 748,44.499999 C 746.50055,45.249723 743.72106,45.389468 741.5,46.499999 C 738.95667,47.771666 739.85236,49.786908 737,50.499999 C 733.08772,51.47807 732.41363,50.91363 729.5,47.999999 C 727.50377,46.003771 724.69212,45.999999 721.5,45.999999 C 718.19635,45.999999 716.79914,47.850427 714.5,48.999999 C 711.81977,50.340116 710.48915,51.514463 709,53.499999 C 707.63599,55.318675 706.86185,56.499999 703.5,56.499999 C 701.1137,56.499999 698.06719,51.365625 697,53.499999 C 695.67423,56.151547 695.35261,56.999999 692.5,56.999999 C 689.15713,56.999999 686.37602,54.999999 684,54.999999 C 680.87661,54.999999 680.75634,56.243664 679,57.999999 C 677.16087,59.839127 677.82856,63.171439 676.5,64.499999 C 675.21832,65.781678 674.12915,67.370847 672.5,68.999999 C 670.48345,71.016553 669.64511,72.85489 668,74.499999 C 667.20082,75.29918 664.89667,79.025831 663,79.499999 C 662.33333,79.666666 661.66667,79.833333 661,80 C 658.93031,79.586061 658.57252,78.356869 656,79 C 651.69142,80.077144 649.74241,80.515181 647,86 C 645.07777,89.844465 644.09499,94.976251 640,96 C 637.85327,96.536682 628.75199,98.503978 631,103 C 632.79506,106.59011 628.40989,113.20494 632,115 C 636.08634,117.04317 636.22996,122.55401 629,124 C 624.08394,124.98321 619.64027,125.83993 615,127 C 609.82339,128.29415 606.38049,128.30976 601,131 C 599.44305,131.77847 589.88378,139.03513 591,143.5 C 591.91873,145.33747 593.06197,146.24787 593.5,148 C 593.97838,149.9135 595.41155,151.14619 596,153.5 C 596.66941,156.17764 599.5,156.57334 599.5,159.5 C 599.5,162.43647 600.5,163.38755 600.5,166.5 C 600.5,169.07616 600.1698,171.24765 598.5,172.5 C 597.02224,173.60832 594.47113,176.00722 592.5,176.5 C 590.81145,176.92214 586.29998,177.10001 584.5,178 C 582.84167,178.82916 581.80546,179.84727 579.5,181 C 578.06405,181.71798 574.67907,183.5 573,183.5 C 570.11677,183.5 566.22521,183.77479 564.5,185.5 C 563.73066,186.26934 559.64625,187.7075 559,189 C 558.11319,190.77363 558.17393,192.80429 557.5,195.5 C 557.0223,197.41081 556.50163,199.99837 555,201.5 C 554.08687,202.41313 550.96127,204.6549 550.5,206.5 C 549.95733,208.67068 548.2535,209.49301 547,212 C 546.49474,213.01051 545.93552,217.56448 545,218.5 C 543.15627,220.34373 542.48713,223.56437 542,226 C 541.4253,228.8735 540.05921,231.76317 539.5,234 C 538.72615,237.09541 536.69241,236.61517 535.5,239 C 534.76337,240.47327 533.31925,243.90375 533,245.5 C 532.50463,247.97685 531.76651,250.23349 530,252 C 528.8442,253.1558 526,256.47804 526,258.5 C 526,264.1755 521.84657,262.05686 520.25,265.25 C 519.37349,265.68825 518.47873,266.29254 518,267.25 C 517.60355,268.04291 516.75,270.08273 516.75,271 C 516.75,272.15229 516.21792,273.53208 515.5,274.25 C 515.15322,274.59678 513.39677,276.90081 513,277 C 511.77025,277.30744 511.25729,277.75 509.75,277.75 C 508.11231,277.75 506.64955,277.5 505,277.5 C 503.58333,277.5 502.16667,277.5 500.75,277.5 C 499.36901,277.5 497.88328,277.77334 496.75,278 C 495.25412,278.29918 493.6699,278.58252 492,279 C 490.86204,279.28449 489.00779,279.73962 488.25,280.75 C 487.45777,281.8063 486.0094,282.48121 485.5,283.5 C 484.92315,284.65371 484.49468,285.25532 483.5,286.25 C 482.72037,287.02963 481.56072,288.71964 481,289 C 480.02953,289.48523 478.99742,290.50344 478.25,291.5 C 477.42589,292.59881 477.17617,294.2651 476.25,295.5 C 475.56333,296.41556 474.76164,296.98836 473.75,298 C 473.13473,298.61527 470.89108,299.96784 470.5,300.75 C 470.41667,300.91667 470.38176,301.11824 470.25,301.25 C 469.12829,302.37171 469.25,303.24884 469.25,305 C 469.25,306.41667 469.25,307.83333 469.25,309.25 C 469.25,310.5 469.25,311.75 469.25,313 C 469.25,315.19648 469.3951,316.55245 467,317.75 C 465.68943,318.40528 464.8939,318.67438 464.5,320.25 C 464.19944,321.45226 463.78718,322.90705 463.25,324.25 C 463.02739,324.80654 461.76296,330.05278 461.5,330.25 C 461.09545,330.65455 460.54385,331.52961 460.25,331.75 C 459.44521,332.35359 457.74576,333.76696 457.5,334.75 C 457.25057,335.7477 457.32464,336.95146 457,338.25 C 456.71365,339.39542 456.75,340.70755 456.75,342 C 456.75,343.32983 456.74607,344.76572 456.5,345.75 C 456.1864,347.00442 456.26715,348.2157 455.75,349.25 C 455.24842,350.25316 454.4564,351.30814 453.75,352.25 C 453.07303,353.15263 452.25,353.93922 452.25,355.5 C 452.25,356.75 452.25,358 452.25,359.25 C 452.25,360.59817 452,362.05236 452,363.25 C 452,364.58333 452,365.91667 452,367.25 C 452,368.58333 452,369.91667 452,371.25 C 452,372.67913 452.25,373.48406 452.25,374.75 C 452.25,376 452.25,377.25 452.25,378.5 C 452.25,379.74002 452.47114,381.44227 453,382.5 C 453.49904,383.49809 454.08723,385.83723 455,386.75 C 456.51495,388.26495 457.21272,390.7818 458,392.75 C 458.58911,394.22277 458.9767,395.46116 459.75,396.75 C 460.36882,397.78136 462.03443,399.67215 462.25,400.75 C 462.58711,402.43556 463.5,403.22731 463.5,405 C 463.5,406.5 463.5,408 463.5,409.5 C 463.5,410.87743 462.78586,412.67827 462.25,413.75 C 461.37351,415.50299 460.9252,415.5748 459.75,416.75 C 459.18187,417.31813 458.08124,419.5 456.75,419.5 C 454.38018,419.5 454.99116,418.99116 453.75,417.75 C 452.15301,416.15301 450.97453,416.0434 449.25,414.75 C 447.8369,413.69018 447.0193,412.01158 445.75,411.25 C 444.84329,410.70598 441.44071,409.23715 441,411 C 440.77572,411.89713 438.72935,412.74484 437.75,412.5 C 436.46418,412.17854 434.71931,412.21931 433.5,411 C 432.64871,410.14871 431.84862,408.54931 430.75,408 C 429.68804,407.46902 425.61652,406.9661 425.25,405.5 C 425.06345,404.75379 424.57922,401.68442 424,401.25 C 422.80366,400.35274 421.53987,399.78189 420.25,398.75 C 419.01925,397.7654 416,396.08762 416,394.5 C 416,393.63402 416.35486,391.60485 415.75,391 C 414.75282,390.00282 414.3302,389.5 412.5,389.5 C 410.43246,389.5 409.06309,389.53154 407.5,388.75 C 407.09441,388.54721 403.26952,387.32806 403.25,387.25 C 403.00111,386.25444 402.24843,384.49843 401.5,383.75 C 400.37694,382.62694 399.1691,381.75182 397.5,380.5 C 396.28005,379.58504 394.55724,377.97895 394.25,376.75 C 393.85608,375.1743 392.51421,374.02842 391.75,372.5 C 391.08661,371.17321 390.68602,369.49802 389.75,368.25 C 389.25318,367.58757 388.47015,366.35075 388.25,365.25 C 387.86341,363.31702 386.96734,361.61935 386.5,359.75 C 386.19056,358.51225 386.31338,357.00353 386,355.75 C 385.74554,354.73217 385.75,353.13062 385.75,351.75 C 385.75,349.75056 385.5,347.71083 385.5,345.75 C 385.5,344.83333 385.5,343.91667 385.5,343 C 385.5,341.73039 385.25,340.37177 385.25,339.25 C 385.25,337.9153 385,336.86857 385,335.5 C 385,334.36963 385.27254,332.84016 385,331.75 C 384.54583,329.9333 384.5597,329.3694 383.75,327.75 C 383.27284,326.79568 382.01814,325.78628 381.5,324.75 C 380.83336,323.41672 380.38298,322.03193 380,320.5 C 379.6672,319.16878 379.72195,317.6122 380,316.5 C 380.32921,315.18317 380.75405,314.24595 381.5,313.5 C 382.47415,312.52585 382.57897,311.67103 383.5,310.75 C 383.86496,310.38504 386.11976,309.02095 386.25,308.5 C 386.54446,307.32216 387.04848,305.70152 388,304.75 C 388.89785,303.85215 389.64809,302.63893 390.5,302 C 391.59105,301.18172 392,300.7201 392,299 C 392,297.78281 392.3292,296.0916 392.75,295.25 C 393.12097,294.50807 394,292.38708 394,291.5 C 394,290.23754 393.67734,288.39532 394.25,287.25 C 394.92693,285.89614 395.37839,284.74548 396.5,283.25 C 397.25339,282.24548 398.23939,280.76061 399.25,279.75 C 400.4359,278.5641 401.15274,278.94452 401.75,277.75 C 402.13189,276.98621 403.44619,274.9019 404.25,274.5 C 405.4582,273.8959 406.4179,272.32838 406.75,271 C 406.89804,270.40785 407.47426,267.88234 407,267.25 C 406.08361,266.02814 406.25,264.84686 406.25,263.25 C 406.25,261.83141 405.75,260.76781 405.75,259.5 C 405.75,258 405.75,256.5 405.75,255 C 405.92437,254.30251 406.5,253.145 406.5,252 C 406.5,249.64162 408.53986,251.18357 409.25,250 C 409.959,248.81834 409.90452,247.47738 410.25,245.75 C 410.42431,244.87844 410.01472,242.72055 410.5,241.75 C 411.29273,240.16454 410.6961,239.7844 410.25,238 C 409.94312,236.77247 410.35165,233.92089 409,234 C 406.52513,234.14484 406.06344,231.44154 405.77513,230 C 405.42972,228.27295 408,226.96792 408,225.25 C 408,223.83333 408,222.41667 408,221 C 408,219.58333 408,218.16667 408,216.75 C 408,215.38734 407.94664,213.96343 408.25,212.75 C 408.65969,211.11123 409.9389,211.68516 410.5,210.75 C 411.04591,209.84016 413.54887,205.17528 414.25,205 C 414.97335,204.81916 417.21949,204.03051 417.75,203.5 C 418.84565,202.40435 418.75,201.49234 418.75,199.75 C 418.75,198.14912 418.5,197.35854 418.5,195.75 C 418.5,194.16667 418.5,192.58333 418.5,191 C 418.5,189.5 418.5,188 418.5,186.5 C 418.5,184.79491 418.25,183.82657 418.25,182.25 C 418.25,180.58333 418.25,178.91667 418.25,177.25 C 418.25,175.14873 417.95125,175.70125 417,174.75 C 415.97963,173.72963 415.71355,172.78473 414.75,171.5 C 413.68432,170.07909 413.11151,168.86151 411.75,167.5 C 410.60832,166.35832 410.26102,165.02204 409.5,163.5 C 408.58083,161.66166 407.58905,161.83905 406.5,160.75 C 405.72774,159.97774 405.5,158.77143 405.5,157.25 C 405.5,155.84854 405.16578,153.83687 405.5,152.5 C 405.55747,152.2701 405.8715,151.26398 406,150.75 C 406.29621,149.56518 407,148.3875 407,147.25 C 407,146 407,144.75 407,143.5 C 407,142.38138 407.22088,140.94175 406.75,140 C 406.2908,139.08159 406,138.20744 406,136.75 C 406,135.87727 405.66349,133.58651 406.25,133 C 406.96046,132.28954 407.5,131.45096 407.5,130 C 407.5,128.41051 407.1074,127.4296 406.75,126 C 406.50049,125.00194 403.42157,123.33242 403.42157,122.25 C 403.42157,120.74873 406.268,119.61333 405.75,118.75 C 405.35317,118.08862 404.29643,114.94911 403.5,114.75 C 402.44231,114.48558 400.12056,113.32741 399.5,112.5 C 398.88138,111.67517 397.31406,110.37812 397,109.75 C 396.39915,108.5483 395.84339,107.43677 395.25,106.25 C 394.20367,104.15735 393.21833,105.03875 391.5,103.75 C 390.04089,102.65567 390.39973,101.64972 389.25,100.5 C 388.01877,99.268769 387.7201,98.930023 386,98.499999 C 384.95448,98.238619 382.75,98.19166 382.75,96.999999 C 382.75,95.191238 381.67539,93.999999 379.75,93.999999 C 378.4265,93.999999 376.79861,94.259722 375.5,93.999999 C 374.09439,93.718877 372.68352,93.744692 371.75,92.499999 C 370.93189,91.409182 369.37496,90.524992 368,90.249999 C 365.87963,89.825924 364.35453,89.749999 362.25,89.749999 C 360.47593,89.749999 358.4929,90.435725 356.75,89.999999 C 355.27921,89.632301 353.97677,89.499999 352.25,89.499999 C 350.57571,89.499999 348.86324,89.653308 347.25,89.249999 C 345.39319,88.785796 346.38926,87.435684 345.5,86.249999 C 344.82499,85.349991 342.93286,85.614836 342.08579,84.767766 C 340.90682,83.5888 340.0955,82.345501 339.25,81.499999 C 338.83688,81.08688 336.49195,79.104862 336.25,78.499999 C 335.96483,77.787068 334.92621,75.463105 334,74.999999 C 333.27373,74.636866 331.75,74.420733 331.75,72.999999 C 331.75,71.61197 331.53661,70.646453 331.25,69.499999 C 330.93918,68.256731 331.50998,66.749999 330,66.749999 C 329.172,66.749999 324.57203,67.894066 325,68.749999 C 325.53374,69.81747 326.19984,70.649682 326.75,71.749999 C 327.14061,72.531219 328.07762,74.09475 327.5,75.249999 C 326.85174,76.546517 326.86487,76.942565 325.25,77.749999 C 324.42252,78.163741 323.05381,78.946187 322,79.999999 C 321.03275,80.967248 320.77821,80.867946 319.25,81.249999 C 318.38435,81.46641 316.98984,81.88008 316.25,82.249999 C 315.0021,82.873949 314.06916,83.357708 312.5,83.749999 C 311.05498,84.111254 309.12173,83.814135 307.75,84.499999 C 306.49892,85.12554 306.74185,87.504072 306.25,87.749999 C 305.65322,88.048389 304.27488,88.950235 303.75,89.999999 C 303.21713,91.065739 303.28885,92.344607 303,93.499999 C 302.60384,95.084638 302.25,96.685033 302.25,98.499999 C 302.25,98.833332 302.25,99.166666 302.25,99.499999 C 302.25,100.1885 302.46828,103.14879 302,103.5 C 301.08643,104.18518 300.18654,105.5 299,105.5 C 297.75,105.5 296.5,105.5 295.25,105.5 C 293.30267,105.5 292.5675,104.65875 291.25,104 C 289.97567,103.36283 288.93496,103.07398 287.5,102.5 C 285.69062,101.77625 284.72458,101.25 282.75,101.25 C 281.36626,101.25 280.46071,101.50982 279.5,101.75 C 278.40922,102.02269 277.2038,103.82405 276.5,104 C 275.30338,104.29915 273.81024,104.62952 273.25,105.75 C 272.79522,106.65956 272.34824,108.22544 271.25,108.5 C 269.84058,108.85235 268.76353,109.23647 267.5,110.5 C 266.52835,111.47165 265.64957,112.35043 264.75,113.25 C 264.09488,113.90512 263.12427,114.40643 261.75,114.75 C 260.54637,115.05091 260.10539,115.8946 259.25,116.75 C 258.67653,117.32347 257.67902,118.53549 256.75,119 C 256.48178,119.13411 253.52517,120.19966 253.5,120.25 C 253.23572,120.77856 252.45377,122.89812 251.75,123.25 C 250.53665,123.85667 252.47789,128.01777 251.12132,128.01777 C 249.62132,128.01777 246,126.25 244.5,126.25 C 243.27836,126.25 241.67482,126.5437 240.5,126.25 C 239.1894,125.92235 237.87716,125.87716 236.75,124.75 C 235.942,123.94199 234.62599,123.5 233,123.5 C 231.51732,123.5 230.39335,123.42832 229.25,124 C 227.78512,124.73244 226.76245,125.37189 225.25,125.75 C 223.82301,126.10675 223.59382,128.01247 223,128.25 C 221.94821,128.67071 220.60302,128.91174 219.25,129.25 C 218.29519,129.4887 216.53195,129.12221 216.25,130.25 C 215.92302,131.55792 216.34987,132.78753 214.5,133.25 C 213.21018,133.57245 211.86793,133.5 210.5,133.5 C 209.88791,133.5 206.36809,132.94096 206.25,133 C 205.96085,134.15659 206.07907,133.71046 205,134.25 C 204.10426,134.69787 202.6054,134.4473 201.5,135 C 200.75412,135.37294 199.66076,137.08481 199,137.25 C 198.61725,137.34569 196.1265,137.49399 196,138 C 195.92723,138.29108 196.03539,141.21461 195.75,141.5 C 195.18026,142.06973 194.14448,143.44724 192.75,142.75 C 191.75349,142.25175 191,141.62872 191,140 C 191,138.71081 189.71986,137.21985 189,136.5 C 188.04049,135.54049 186.49168,135.99168 185.75,135.25 C 184.79124,134.29124 184.00506,134.75 182.75,134.75 C 181.84586,134.75 179.78792,134.35604 179,134.75 C 177.76861,135.3657 177.44154,135.32711 175.75,135.75 C 174.82053,135.98237 174,137.00229 174,138 C 174,139.44079 174.5,140.22353 174.5,141.5 C 174.5,142.09845 174.88335,145.53751 173.5,144.5 C 172.34897,143.63673 170.7398,144.59406 169.5,142.25 C 168.87902,141.07592 167.60363,143.70347 166.35355,143.07843 C 165.58421,142.69376 163.74113,138.99113 163,138.25 C 162.67776,137.92776 160.61037,136.25 160,136.25 C 158.94543,136.25 156.95121,136.63048 156,136.25 C 155.26875,135.9575 152.30251,135.03997 152,136.25 C 151.60433,137.83269 150.96854,138.14073 149.75,138.75 C 148.28916,139.48042 146.91905,139.66905 148.5,141.25 C 149.48459,142.23459 149.75,143.20374 149.75,144.75 C 149.75,146.65117 149.85128,146.89872 148.75,148 C 148.09083,148.65917 147.37756,149.12244 146.5,150 C 145.33654,151.16346 145.5,152.1403 145.5,153.75 C 145.5,154.88036 145.22746,156.40983 145.5,157.5 C 145.72463,158.39851 146.48634,159.73179 147.25,160.75 C 148.05593,161.82458 149.25,162.96324 149.25,164.25 C 149.25,165.56695 149.75,166.83081 149.75,167.75 C 149.75,169.64836 150.31369,170.65605 148.25,171 C 146.58742,171.2771 145.51557,171.89591 144.5,173.25 C 143.77761,174.21318 143.20735,174.5 141.5,174.5 C 140.06758,174.5 139.11329,174.52266 137.75,174.25 C 136.2356,173.94712 134.22591,173.5 132.75,173.5 C 131.52088,173.5 130.61285,172.7257 130,171.5 C 129.54242,170.58485 128.44359,169.94359 127.5,169 C 126.51304,168.01304 125.40574,167.31148 124.75,166 C 124.19597,164.89195 122.55046,164.45185 122.25,163.25 C 121.89591,161.83364 121.40582,160.65582 120.25,159.5 C 118.97442,158.22442 118.11894,157.90473 116.5,157.5 C 114.75795,157.06449 114.96727,155.42932 113.25,155 C 112.36555,154.77889 110.77192,154.75 109.5,154.75 C 107.75068,154.75 106.56017,154.25 104.75,154.25 C 103.36656,154.25 101.48179,153.8841 100.25,154.5 C 99.444792,154.9026 97.99972,155.43771 97.25,156 C 96.241186,156.75661 96.006555,157.24126 95.25,158.25 C 94.511495,159.23467 93.42064,160.20734 92.25,160.5 C 91.095892,160.78853 89.526574,160.44685 89,161.5 C 88.585684,162.32863 87.525592,162.94881 87,164 C 86.413152,165.1737 86.374195,166.00322 86,167.5 C 85.632205,168.97118 81.5,170.52333 81.5,171.25 C 81.5,172.88776 81.25,174.3941 81.25,176 C 81.25,177.00661 81.593507,178.95866 81,179.75 C 80.133451,180.9054 79.722838,182.02716 78.75,183 C 78.175503,183.5745 76.96969,184.81062 76.5,185.75 C 76.139535,186.47093 75.474782,188.77522 74.75,189.5 C 74.22255,190.02745 72.182613,191.08693 72,192 C 71.671558,193.64221 71.789288,194.48428 70.5,195 C 69.39528,195.44189 68.223554,195.44411 67,195.75 C 65.956561,196.01086 63.630378,196.25 62.25,196.25 C 60.966628,196.25 59.243477,195.93913 58,196.25 C 56.133837,196.71654 56.478682,196.94509 55.5,198.25 C 54.238672,199.93177 54.041258,199.04126 52.75,197.75 C 51.500334,196.50033 50.304893,195.30489 49,194 C 47.899867,192.89987 47.562631,192.06263 46.75,191.25 C 45.963289,190.46329 45.779397,188.5 44.5,188.5 C 42.650446,188.5 42.183561,187.25 40.5,187.25 C 38.615637,187.25 37.979377,186.80734 36.75,186.5 C 35.835812,186.27145 32.5803,185.6697 31.75,186.5 C 31.398665,186.85133 28.871507,188.50699 28.75,188.75 C 28.451094,189.34781 26.5,190.76511 26.5,191.25 C 26.5,192.74853 26.714133,194.03587 25.75,195 C 24.740719,196.00928 24.5991,196.58727 23.25,196.25 C 21.348853,195.77471 20.158077,194.82904 18.5,194 C 17.647932,193.57397 16.220739,191.49268 15.25,191.25 C 14.139704,190.97243 12.813358,190.31336 12,189.5 C 11.199969,188.69997 9.6751053,186.75 8,186.75 C 5.9417229,186.75 5.7008788,186.69648 5.25,188.5 C 4.89947,189.90212 4.2756091,190.19878 3.75,191.25 C 3.6494184,191.45116 3.3526427,194.67302 3.25,194.75 C 1.7841364,195.8494 -3.7572814,196.70369 -5.6568543,196.25 L -3.3284271,-10.485282 L 782,-15.313709 z " id="path2283" sodipodi:nodetypes="csssssssssssssssssssssssscsssssssscsssssssssssssssssssssscsssssssssssssssssssssssscsssssssssssssssssssssssssssssssssssssssssssssssssssssssssssssssssssssssssscsssssssssssssssssssssssssssssssssssssssssssssssssssssssssssssssssssssssssssssssssssssssssssssssssssssssscssssssssssssssssssssssssssssssssssssssssssssssssssssssssssssssssssssssssssssssssssccc"/>
    <path style="fill:none;fill-opacity:0.75;fill-rule:evenodd;stroke:#d0c0a0;stroke-width:3.5;stroke-linecap:butt;stroke-linejoin:miter;stroke-miterlimit:4;stroke-dasharray:3.5, 7;stroke-dashoffset:0;stroke-opacity:1" d="M 102.5,437.5 C 102.5,439.05434 108.82481,440.9562 111,441.5 C 115.13884,442.53471 113.38279,442.66209 116.5,445 C 118.34185,446.38139 121.57666,445.89416 124,446.5 C 127.3788,447.3447 128.44316,445.72737 127.5,449.5 C 126.69974,452.70103 124.69939,451.29758 125.5,454.5 C 126.27287,457.5915 127.85573,457.77865 128.5,461 C 129.20258,464.5129 128.00668,465.25501 131,467.5 C 131.35809,467.76857 131.41705,474.16818 131.5,474.5 C 132.17048,477.18193 134.74676,478 137.5,478 C 140.84883,478 141.22515,477.72515 144,480.5 C 145.46311,481.96311 148.89826,482.19913 150.5,483 C 153.37118,484.43559 155.31234,483.18766 156.5,482 C 158.26436,480.23564 159.5489,479.4511 161,478 C 162.13551,476.86449 166.83339,477 168.5,477 C 171.26601,477 171.74413,476 175,476 C 175.79415,476 179.09326,481.19494 179.5,481.5 C 182.03619,483.40214 184.87724,482.31138 186.5,481.5 C 188.98088,480.25956 189.85944,480.14056 191.5,478.5 C 193.06616,476.93384 199.00205,478 201.5,478 C 204,478 206.5,478 209,478 C 211.80791,478 213.95094,480.30376 214.5,482.5 C 215.01225,484.54899 218.93118,485 221,485 C 223.91388,485 226.28873,484.1549 227,487 C 227.49004,488.96017 232.07996,488.61599 234,489 C 236.40208,489.48042 238.40941,491.40941 240,493 C 243.14563,496.14563 242.31854,495 247.5,495 C 250.71752,495 252.75634,495.75634 255,498 C 256.72348,499.72348 261.90996,497.77251 263,497.5 C 263.59812,497.35047 265.22423,493.60309 265.5,492.5 C 266.17944,489.78222 265.46337,487.07326 266.5,485 C 266.82897,484.34206 271.98722,484.01278 273,483 C 274.09643,481.90357 278.40372,480.29814 279,480 C 280.33106,479.33447 279.85099,476.78725 283,476 C 285.62729,475.34318 287.2573,474.37135 289,473.5 C 290.50663,472.74668 291.5,469.69072 291.5,468 C 291.5,465.14473 291.53476,462.93048 292.5,461 C 293.28874,459.42253 297.44231,459.05769 298.5,458 C 299.92887,456.57113 302.60623,456.5 305,456.5 C 306.5659,456.5 309.04314,453.98921 311,453.5 C 314.37693,452.65577 313.74209,452.12105 317.5,454 C 320.01825,455.25912 323.89597,453.60403 325,452.5 C 325.93523,451.56477 332.49739,451.5 334,451.5 C 336.66667,451.5 339.33333,451.5 342,451.5 C 344.5,451.5 347,451.5 349.5,451.5 C 352.16667,451.5 354.83333,451.5 357.5,451.5 C 359.64495,451.5 359.91553,455.5 363.5,455.5 C 366.22484,455.5 369.07348,455.39337 371.5,456 C 373.78923,456.57231 375.26264,458 378.5,458 C 380.34529,458 381.76373,460.5 385,460.5 C 388.2793,460.5 389.80367,460.10734 391,462.5" id="path2295"/>
    <path style="fill:none;fill-opacity:0.75;fill-rule:evenodd;stroke:#d0c0a0;stroke-width:3.5;stroke-linecap:butt;stroke-linejoin:miter;stroke-miterlimit:4;stroke-dasharray:3.5, 7;stroke-dashoffset:0;stroke-opacity:1" d="M 157,658.5 C 157.60377,660.91508 162.2926,660.67685 165,660 C 167.24409,659.43898 169.76974,662.5 172.5,662.5 C 176.7142,662.5 176.6322,662.6322 179,665 C 179.5,665.5 180,666 180.5,666.5 C 181.94318,667.94318 185.86638,667.5916 187.5,668 C 190.45905,668.73976 191.70025,669.60013 194.5,671 C 197.12694,672.31347 197,674.92821 197,677.5 C 197,679.85702 200.94591,680.39181 202,682.5 C 202,684.59346 203.96577,689.36309 204.5,691.5 C 205.3623,694.94919 205.7971,695.2971 208,697.5 C 209.02861,698.52861 207.5,703.16938 207.5,704.5 C 207.5,707.69796 209.671,708.31598 209,711 C 208.72318,712.10728 205.63592,713.72815 205,715 C 203.88301,717.23397 204.30606,719.19394 202.5,721 C 200.7166,722.7834 201,724.76686 201,727.5 C 201,729.95241 199.1827,731.79324 198.5,733.5 C 197.71429,735.46427 198.5,739.37643 198.5,741.5" id="path2293"/>
    <path style="fill:none;fill-opacity:0.75;fill-rule:evenodd;stroke:#a08070;stroke-width:4.5;stroke-linecap:butt;stroke-linejoin:miter;stroke-miterlimit:4;stroke-dasharray:none;stroke-opacity:1" d="M 151.5,169 C 153.27119,170.70751 155.36784,172 159,172 C 162.60388,172 163.84422,173.37688 164.5,176 C 165.11052,178.44207 167.71502,180 170.5,180 C 172.86542,180 170.90964,185.18072 170.5,186 C 170.02076,186.95847 165.62638,187.87362 164.5,189 C 163.1179,190.3821 164.25176,194.50705 164.5,195.5 C 164.8979,197.0916 168.83629,198.84517 169.5,201.5 C 170.3154,204.76159 172.53275,204.46725 170,207 C 168.83129,208.16871 164.882,207.61799 163.5,209 C 162.12031,210.37969 162.5,214.41185 162.5,216.5 C 162.5,219.78381 163.46394,221.75902 160.5,222.5 C 158.0123,223.12192 156.15609,224.87564 155.5,227.5 C 154.78152,230.37392 155.5,234.53114 155.5,237.5 C 155.5,239.81807 154.5,241.63467 154.5,244 C 154.5,245.71754 152.5,248.0101 152.5,251 C 152.5,252.32943 149.5,252.60868 149.5,256 C 149.5,259.1371 146.7575,258.985 145.5,261.5 C 144.63091,263.23817 141.59459,263.2027 140,264 C 138.91162,264.54419 142.28078,270.62313 142.5,271.5 C 143.38726,275.04903 143.97174,275.52826 142,277.5 C 140.25208,279.24792 135.52288,278.47712 133.5,280.5 C 130.94263,283.05737 134.05293,283.23677 129,284.5 C 126.52392,285.11902 126,288.39264 126,290.5 C 126,293.24872 125.99569,296.51724 125.5,298.5 C 125.46665,298.63339 123.28038,302.93924 123,303.5 C 119.58756,310.32487 114.4982,304.9982 120,310.5 C 121.40826,311.90826 120.9892,314.5432 120.5,316.5 C 120.18604,317.75586 116.07256,320.42744 115.5,321 C 114.08088,322.41912 115.39359,325.03204 115,327 C 114.74072,327.25928 115.21465,334.3586 115.5,335.5 C 115.98446,337.43785 121.73758,341.23758 122.5,342 C 123.52742,343.02742 123.28565,348.1426 123.5,349 C 124.51241,353.04963 122.6698,352.15099 122,355.5 C 121.56131,357.69343 120.4382,359.12359 119.5,361 C 118.85097,362.29806 114.9729,364.7028 114,366 C 112.12879,368.49495 112,368.65912 112,372.5 C 112,375.0548 112.03017,377.62068 112.5,379.5 C 112.86913,380.97651 116.48572,381.62143 118,382 C 118.25951,382.06488 118,388.82266 118,389.5 C 118,392.68257 118.96735,393.03265 116,396 C 113.53982,398.46018 113.32363,398.70549 112.5,402 C 111.47938,406.08247 112.59826,406.40174 110,409 C 108.00673,410.99327 108,413.679 108,416.5 C 108,420.07667 107.29586,421.31657 106.5,424.5 C 105.77004,427.41984 105.03547,430.32267 104.5,433 C 104.00815,435.45924 102.6612,436.35519 102,439 C 101.3267,441.69319 100.37382,443.31544 99.5,445.5 C 98.665448,447.58638 99.5,451.66109 99.5,454 C 99.5,457.2806 100.31397,458.25589 101,461 C 101.75559,464.02234 101.29619,466.00953 100.5,468 C 99.638177,470.15456 97.478603,471.2607 96,472 C 93.985099,473.00745 93.459841,476.16064 93,478 C 92.425012,480.29995 90.767567,481.33783 91.5,485 C 91.730613,486.15306 95.242882,490.24288 96,491 C 98.152871,493.15287 100.90164,491.30328 102.5,494.5 C 103.28792,496.07583 102.5,500.19173 102.5,502 C 102.5,505.50162 104.3362,506.37715 104.5,506.5 C 104.5,510.23657 105.03328,512.75832 108,513.5 C 110.31837,514.07959 112.90453,514.60113 114.5,515 C 116.79703,515.57426 115.58821,518.27205 118.5,519 C 121.34336,519.71084 123.52103,519.38026 126,520 C 126.34144,520.08536 128.34385,525.3754 128.5,526 C 128.7798,527.11922 134.17204,529.66801 135.5,530 C 138.72985,530.80746 138.8021,532.90105 141,534 C 144.55059,535.77529 141.8607,537.5 146.5,537.5 C 148.40029,537.5 144.69967,541.15016 143,542 C 140.42355,543.28823 140.10395,543.89605 138.5,545.5 C 137.13944,546.86056 139.83471,552.08677 140,552.5 C 140.49791,553.74477 144.56308,555.12616 145.5,557 C 146.93969,559.87938 145.56922,560.56922 147.5,562.5 C 149.47906,564.47906 149,566.41719 149,569.5 C 149,573.98341 150.75403,575.25403 154,578.5 C 156.08794,580.58794 156.28193,584.28193 158,586 C 159.84529,587.84529 160.5,587.37266 160.5,591.5 C 160.5,593.14036 159.92673,596.29308 159.5,598 C 158.91504,600.33983 159.5,603.58604 159.5,606 C 159.5,607.35995 164,606.66125 164,610 C 164,612.38903 165,613.66944 165,616.5 C 165,619.17564 166.50064,620.5 163.5,620.5 C 163.5,623.08842 166.5,624.42792 166.5,628 C 166.5,630.5 166.5,633 166.5,635.5 C 166.5,637.21013 165.35731,640.57074 165,642 C 164.53396,643.86414 163.20724,645.17103 162.5,648 C 161.54152,651.83391 161.86562,653.13438 159,656 C 157.49021,657.50979 156.36762,659.26476 155.5,661 C 154.52767,662.94466 156,666.90217 156,669 C 156,671.5 156,674 156,676.5 C 156,679.75941 154.14988,679.20024 153,681.5 C 151.42445,684.65111 151.14805,684.51397 148.5,686.5 C 147.01453,687.6141 146.79742,691.81032 146.5,693 C 145.83351,695.66597 143.24025,695.03902 142.5,698 C 141.85758,700.56969 142,703.27673 142,706 C 142,708.3863 137.13437,706.43281 135,707.5 C 133.78158,708.10921 134.5,714.79257 134.5,716 C 134.5,719.16378 135.10892,720.89108 133.5,722.5 C 131.3013,724.6987 131.5,727.03258 131.5,730 C 131.5,733.02482 131,734.53359 131,737.5 C 131,738.20711 132,738.5 132.5,739" id="path2287"/>
    <path style="fill:none;fill-opacity:0.75;fill-rule:evenodd;stroke:#a08070;stroke-width:4.5;stroke-linecap:butt;stroke-linejoin:miter;stroke-miterlimit:4;stroke-dasharray:none;stroke-opacity:1" d="M 219.5,740 C 219.5,740.70304 222,737.02846 222,733.5 C 222,730.59801 228.02223,732.0889 227,728 C 226.31519,725.26078 228.96881,724.15594 229.5,721.5 C 230.27212,717.63939 229.38958,717.61042 232,715 C 233.90925,713.09075 234,712.14826 234,708.5 C 234,705.64084 232.90304,704.69393 234,702.5 C 234.68232,701.13536 238.54316,700.45684 239.5,699.5 C 240.50983,698.49017 241,695.37332 241,693.5 C 241,691.49596 238.5,691.30906 238.5,688 C 238.5,686.93507 243.94444,684.55556 244.5,684 C 246.48219,682.01781 248.62184,681.74369 250,684.5 C 250.48257,685.46513 249,690.24312 249,692 C 249,694.29391 249.5,697.01787 249.5,699.5 C 249.5,699.91188 251.5,704.12899 251.5,706.5 C 251.5,709.63488 251.701,711.90201 253,714.5 C 254.30928,717.11856 258,712.53593 258,718 C 258,721.12362 261.23746,720 264,720 C 266.91849,720 269.72655,719.94531 272.5,720.5 C 275.78524,721.15705 277,719.42748 277,725.5 C 277,728.79612 279.72052,731.5 282.5,731.5 C 286.39977,731.5 288.06339,733.12679 289.5,736 C 291.11633,739.23265 288.86111,740 293.5,740 C 294.5,740 295.5,740 296.5,740" id="path2289"/>
    <path style="fill:none;fill-opacity:0.75;fill-rule:evenodd;stroke:#a08070;stroke-width:4.5;stroke-linecap:butt;stroke-linejoin:miter;stroke-miterlimit:4;stroke-dasharray:none;stroke-opacity:1" d="M 436.5,413 C 437.57115,413 436.01436,419.97129 435.5,421 C 434.46628,423.06744 432.28368,423.36529 431.5,426.5 C 430.8797,428.9812 431.5,432.41817 431.5,435 C 431.5,436.70333 426.58243,438.82843 425.20711,438.82843 C 421.69797,438.82843 421.3064,438 417.5,438 C 413.98919,438 412.02713,438.23644 409.5,439.5 C 407.27447,440.61276 408.14676,442 404.5,442 C 401.26951,442 399.39143,441.4781 397.5,444 C 395.57441,446.56746 394.5,445.42181 394.5,449.5 C 394.5,451.5928 394,454.55594 394,457 C 394,459.91315 391.49473,461.51053 390.5,463.5 C 389.02622,466.44756 390.32843,467.59561 390.32843,471.12132 C 390.32843,473.6301 386.25498,473.62251 384.5,474.5 C 380.8966,476.3017 380.52742,474.94515 378.5,479 C 377.50053,480.99893 377.54079,482.83683 377,485 C 376.3306,487.67761 379.82753,489.08188 381.5,489.5 C 383.93323,490.10831 385.3512,491.5 389,491.5 C 391.75715,491.5 394.49799,491.3745 397,492 C 399.50543,492.62636 401.20656,495.35328 403.5,496.5 C 406.05531,497.77766 407.81161,499.7029 411,500.5 C 413.34452,501.08613 414.54845,502.76211 417.5,503.5 C 418.81473,503.82868 420.88014,506.88014 422,508 C 423.90394,509.90394 423.89569,515.00913 423.24264,517.62132 C 422.72164,519.70532 419.5,519.97698 419.5,522.5 C 419.5,525 419.5,527.5 419.5,530 C 419.5,532.46712 418.5,534.75115 418.5,537.5 C 418.5,540.16667 418.5,542.83333 418.5,545.5 C 418.5,548 418.5,550.5 418.5,553 C 418.5,557.10779 422.16533,550.33869 422.5,549 C 423.41775,545.32902 426,546.88958 426,543 C 426,539.94132 429.2384,539.0654 431.5,538.5 C 432.16667,538.33333 432.83333,538.16667 433.5,538 C 439.03087,536.61728 440.73159,537.96317 443,542.5 C 444.03725,544.57449 444.91421,547.68185 444.91421,550 C 444.91421,552.22909 445.03494,555.53494 446.5,557 C 449.00008,559.50008 446.82886,560.66443 450.5,562.5 C 452.4485,563.47425 457.18765,566.84383 457.5,567 C 459.39737,567.94868 459.87868,562.5 462,562.5 C 465.95835,562.5 466.5,563.00615 466.5,559 C 466.5,557.78665 468.91475,558.54263 470,558 C 470,555.16667 474.75126,561.31282 477.5,562 C 479.80165,562.57541 478.19135,566.67284 481.5,567.5 C 483.2796,567.9449 486.04233,570.90675 487.5,572 C 489.77396,573.70547 488.54533,576 492.5,576 C 495.67048,576 494.78185,573.89093 498,575.5 C 499.54862,576.27431 499,581.64745 499,583.5 C 499,586.35527 499.03476,588.56952 500,590.5 C 501.16679,592.83357 502.48703,594.99028 504.5,596.5 C 505.21924,597.03943 504.78346,603.91731 505,605 C 505.18054,605.90272 511.30668,606.22672 512,609 C 512.73012,611.92048 515.16562,611 518,611 C 521.86511,611 523.29695,610.70305 524.5,609.5 C 525.0132,608.9868 531.5619,609 532.5,609 C 536.30863,609 536.88688,607.5 539.5,607.5 C 542.64216,607.5 545.6079,607.42158 548.5,608 C 552.01125,608.70225 554.6506,607.7992 556,606 C 557.64122,603.81171 561.81168,607.37663 563.5,604 C 564.55664,601.88671 566.82707,602 569.5,602 C 571.2864,602 574.36576,599.03356 576.5,598.5 C 580.17329,597.58168 579.1309,597.97641 580,594.5 C 580.66967,591.82132 584.95521,593.5 587.5,593.5 C 590.36314,593.5 593.50679,594 596.5,594 C 598.53443,594 598.02632,589.49342 600,589 C 603.39945,588.15014 602.82273,592.20568 606,593 C 610.29917,594.07479 610.6495,594.299 612.5,598 C 613.95534,600.91067 618.54824,597.95176 619,597.5 C 621.05784,595.44216 625.4295,599.4295 626,600 C 627.36295,601.36295 629.2372,597.81626 632,601.5 C 633.55738,603.5765 632.9946,606.48921 634,608.5 C 635.2442,610.9884 638.07934,611.51984 640,612 C 642.48874,612.62219 645.49542,611.75229 647,611 C 649.99356,609.50322 651.56504,610.26626 654.5,611 C 655.11749,611.15437 659.83878,608.5 662,608.5 C 666.56689,608.5 666.35768,609.92946 668.5,613.5 C 669.31218,614.85364 675.26212,613.01616 677.5,616 C 679.41886,618.55847 683.80096,618.5 687,618.5 C 689.79429,618.5 692.34211,621.5 696,621.5 C 699.30273,621.5 700.2572,622.6286 702,623.5 C 703.96073,624.48036 701.98036,628.03927 701,630 C 700.30705,631.3859 696.93314,634.06686 696,635 C 694.40515,636.59485 693.43818,640.62364 692.5,642.5 C 691.32044,644.85912 694.75622,645.5 697,645.5 C 700.18185,645.5 701.49482,645.50518 703,644 C 704.9577,642.0423 702.85457,638.35457 702,637.5 C 701.92311,637.42311 707.45825,639.5 711,639.5 C 713.71789,639.5 715.78386,640 718.5,640 C 722.3254,640 723.33059,638.41529 727.5,640.5 C 729.41418,641.45709 733.621,641.121 735.5,643 C 738.38373,645.88373 738.84545,647.32728 742.5,645.5 C 743.77717,644.86141 744.10055,646.70041 744.5,647 C 746.19967,646.15016 747.09971,650.5 749,650.5 C 752.67986,650.5 753.6743,650.16972 757,651.5 C 759.63809,652.55524 761.28987,649 764.5,649 C 767.16117,649 771.7431,649.37155 774,650.5 C 777.19319,652.0966 780.1624,652.0406 784,653 C 785.09546,653.27386 782.61515,648.83636 781.5,648 C 778.85233,646.01425 778.38499,643.96004 779,641.5 C 779.92836,637.78654 777.17723,637.82277 779.5,635.5 C 780.15813,634.84187 785.73548,635.19113 786.5,635 C 786.77013,634.93247 790.72257,639.72257 791,640 C 793.4337,642.4337 797.49849,638.99394 798.5,643 C 798.71465,643.85859 801.85063,643.5 802.5,643.5" id="path2291" sodipodi:nodetypes="cssssssssssssssssssssssssssssssssssssssscssssssssssssssssssssssssssssssssssssssssssssssssscsssssssssssc"/>
    <path sodipodi:type="star" style="opacity:1;fill:#ff0000;fill-opacity:1;stroke:#000000;stroke-width:1.73630702;stroke-linecap:round;stroke-miterlimit:4;stroke-dasharray:none;stroke-dashoffset:0;stroke-opacity:1" id="path2297" sodipodi:sides="5" sodipodi:cx="316.78384" sodipodi:cy="387.86081" sodipodi:r1="19.646883" sodipodi:r2="7.4664893" sodipodi:arg1="0.52807445" sodipodi:arg2="1.156393" inkscape:flatsided="false" inkscape:rounded="0" inkscape:randomized="0" d="M 333.75441,397.7603 L 319.79018,394.69531 L 312.61306,407.05989 L 311.21286,392.83198 L 297.23559,389.827 L 310.33445,384.09866 L 308.87315,369.8769 L 318.36889,380.5645 L 331.44302,374.77996 L 324.21285,387.11359 L 333.75441,397.7603 z " transform="matrix(0.799774,-0.162485,0.162485,0.799774,7.40037,135.6529)"/>
    <path sodipodi:type="arc" style="opacity:1;fill:#ff0000;fill-opacity:1;stroke:#000000;stroke-width:1;stroke-linecap:round;stroke-miterlimit:4;stroke-dasharray:none;stroke-dashoffset:0;stroke-opacity:1" id="path3172" sodipodi:cx="396.68689" sodipodi:cy="380.08264" sodipodi:rx="4.2426405" sodipodi:ry="4.2426405" d="M 400.92953 380.08264 A 4.2426405 4.2426405 0 1 1  392.44425,380.08264 A 4.2426405 4.2426405 0 1 1  400.92953 380.08264 z" transform="matrix(1.843412,0,0,1.843412,-336.0705,-322.4805)"/>
    <switch style="font-size:34.21514511px;font-style:normal;font-variant:normal;font-weight:normal;font-stretch:normal;text-align:start;line-height:125%;writing-mode:lr-tb;text-anchor:start;font-family:Sans"><text xml:space="preserve" style="font-size:34.21514511px;font-style:normal;font-variant:normal;font-weight:normal;font-stretch:normal;text-align:start;line-height:125%;writing-mode:lr-tb;text-anchor:start;font-family:Sans" x="443.35565" y="371.52487" id="text3182-bn" sodipodi:linespacing="125%" transform="scale(0.934035,1.070624)" systemLanguage="bn"><tspan sodipodi:role="line" id="tspan3184-bn" x="443.35565" y="371.52487"></tspan></text><text xml:space="preserve" style="font-size:34.21514511px;font-style:normal;font-variant:normal;font-weight:normal;font-stretch:normal;text-align:start;line-height:125%;writing-mode:lr-tb;text-anchor:start;font-family:Sans" x="443.35565" y="371.52487" id="text3182" sodipodi:linespacing="125%" transform="scale(0.934035,1.070624)"><tspan sodipodi:role="line" id="tspan3184" x="443.35565" y="371.52487">NATHULA</tspan></text></switch>
    <switch style="font-size:30px;font-style:normal;font-variant:normal;font-weight:normal;font-stretch:normal;text-align:start;line-height:125%;writing-mode:lr-tb;text-anchor:start;font-family:Sans"><text sodipodi:linespacing="125%" id="text3186-bn" y="402.94061" x="178.94933" style="font-size:30px;font-style:normal;font-variant:normal;font-weight:normal;font-stretch:normal;text-align:start;line-height:125%;writing-mode:lr-tb;text-anchor:start;font-family:Sans" xml:space="preserve" systemLanguage="bn"><tspan sodipodi:role="line" id="tspan3190-bn" x="178.94933" y="402.94061"></tspan></text><text sodipodi:linespacing="125%" id="text3186" y="402.94061" x="178.94933" style="font-size:30px;font-style:normal;font-variant:normal;font-weight:normal;font-stretch:normal;text-align:start;line-height:125%;writing-mode:lr-tb;text-anchor:start;font-family:Sans" xml:space="preserve"><tspan sodipodi:role="line" id="tspan3190" x="178.94933" y="402.94061">Gangtok</tspan></text></switch>
    <switch style="font-size:40px;font-style:italic;font-variant:normal;font-weight:normal;font-stretch:normal;text-align:start;line-height:125%;writing-mode:lr-tb;text-anchor:start;font-family:Sans"><text xml:space="preserve" style="font-size:40px;font-style:italic;font-variant:normal;font-weight:normal;font-stretch:normal;text-align:start;line-height:125%;writing-mode:lr-tb;text-anchor:start;font-family:Sans" x="329.94934" y="658.94061" id="text3192-bn" sodipodi:linespacing="125%" systemLanguage="bn"><tspan sodipodi:role="line" id="tspan3196-bn" x="329.94934" y="658.94061"></tspan></text><text xml:space="preserve" style="font-size:40px;font-style:italic;font-variant:normal;font-weight:normal;font-stretch:normal;text-align:start;line-height:125%;writing-mode:lr-tb;text-anchor:start;font-family:Sans" x="329.94934" y="658.94061" id="text3192" sodipodi:linespacing="125%"><tspan sodipodi:role="line" id="tspan3196" x="329.94934" y="658.94061">INDIA</tspan></text></switch>
    <switch style="font-size:40px;font-style:italic;font-variant:normal;font-weight:normal;font-stretch:normal;text-align:start;line-height:125%;writing-mode:lr-tb;text-anchor:start;font-family:Sans"><text sodipodi:linespacing="125%" id="text3200-bn" y="318.94061" x="624.94934" style="font-size:40px;font-style:italic;font-variant:normal;font-weight:normal;font-stretch:normal;text-align:start;line-height:125%;writing-mode:lr-tb;text-anchor:start;font-family:Sans" xml:space="preserve" systemLanguage="bn"><tspan sodipodi:role="line" id="tspan3206-bn" x="624.94934" y="318.94061"></tspan></text><text sodipodi:linespacing="125%" id="text3200" y="318.94061" x="624.94934" style="font-size:40px;font-style:italic;font-variant:normal;font-weight:normal;font-stretch:normal;text-align:start;line-height:125%;writing-mode:lr-tb;text-anchor:start;font-family:Sans" xml:space="preserve"><tspan sodipodi:role="line" id="tspan3206" x="624.94934" y="318.94061">BHUTAN</tspan></text></switch>
    <switch style="font-size:40px;font-style:italic;font-variant:normal;font-weight:normal;font-stretch:normal;text-align:start;line-height:125%;writing-mode:lr-tb;text-anchor:start;font-family:Sans"><text xml:space="preserve" style="font-size:40px;font-style:italic;font-variant:normal;font-weight:normal;font-stretch:normal;text-align:start;line-height:125%;writing-mode:lr-tb;text-anchor:start;font-family:Sans" x="286.94934" y="48.940613" id="text3210-bn" sodipodi:linespacing="125%" systemLanguage="bn"><tspan sodipodi:role="line" id="tspan3220-bn" x="286.94934" y="48.940613"> ()</tspan></text><text xml:space="preserve" style="font-size:40px;font-style:italic;font-variant:normal;font-weight:normal;font-stretch:normal;text-align:start;line-height:125%;writing-mode:lr-tb;text-anchor:start;font-family:Sans" x="286.94934" y="48.940613" id="text3210" sodipodi:linespacing="125%"><tspan sodipodi:role="line" id="tspan3220" x="286.94934" y="48.940613">CHINA (TIBET)</tspan></text></switch>
    <switch style="font-size:40px;font-style:italic;font-variant:normal;font-weight:normal;font-stretch:normal;text-align:start;line-height:125%;writing-mode:lr-tb;text-anchor:start;font-family:Sans"><text xml:space="preserve" style="font-size:40px;font-style:italic;font-variant:normal;font-weight:normal;font-stretch:normal;text-align:start;line-height:125%;writing-mode:lr-tb;text-anchor:start;font-family:Sans" x="16.449341" y="629.44061" id="text3224-bn" sodipodi:linespacing="125%" systemLanguage="bn"><tspan sodipodi:role="line" id="tspan3230-bn" x="16.449341" y="629.44061"></tspan></text><text xml:space="preserve" style="font-size:40px;font-style:italic;font-variant:normal;font-weight:normal;font-stretch:normal;text-align:start;line-height:125%;writing-mode:lr-tb;text-anchor:start;font-family:Sans" x="16.449341" y="629.44061" id="text3224" sodipodi:linespacing="125%"><tspan sodipodi:role="line" id="tspan3230" x="16.449341" y="629.44061">NEPAL</tspan></text></switch>
  </g>
</svg>
